<?xml version="1.0" standalone="no"?>
<!DOCTYPE svg PUBLIC "-//W3C//DTD SVG 20010904//EN"
 "http://www.w3.org/TR/2001/REC-SVG-20010904/DTD/svg10.dtd">
<svg version="1.0" xmlns="http://www.w3.org/2000/svg"
 width="500.000000pt" height="500.000000pt" viewBox="0 0 500.000000 500.000000"
 preserveAspectRatio="xMidYMid meet">

<g transform="translate(0.000000,500.000000) scale(0.100000,-0.100000)"
fill="#000000" stroke="none">
<path d="M1554 3542 c-52 -38 -125 -115 -146 -155 -20 -35 -24 -77 -8 -77 6 0
10 12 10 28 1 37 15 60 81 129 61 63 87 80 136 86 30 3 41 -6 150 -117 182
-187 297 -352 331 -479 10 -36 2 -29 -149 114 -87 83 -159 149 -159 146 0 -7
210 -216 210 -208 0 3 4 1 8 -5 25 -40 279 -294 294 -294 10 0 15 -5 12 -13
-6 -16 18 -39 37 -35 8 2 13 -4 11 -13 -1 -8 9 -26 23 -39 14 -13 25 -20 25
-16 0 4 9 2 21 -4 11 -7 18 -18 15 -25 -2 -7 2 -19 10 -25 9 -9 14 -9 14 -2 0
6 6 9 14 6 8 -3 12 -13 10 -22 -3 -12 120 -142 401 -422 223 -223 405 -411
405 -417 0 -7 -7 -14 -15 -14 -8 -1 -19 -2 -25 -3 -5 -1 -198 187 -428 417
-229 229 -424 417 -432 417 -21 1 -48 23 -43 35 5 15 -84 100 -105 100 -10 0
-16 7 -15 15 2 9 -128 145 -294 310 -163 162 -292 288 -287 280 26 -38 169
-213 233 -284 39 -43 69 -81 67 -84 -10 -10 -156 71 -236 132 -47 35 -139 116
-205 180 -65 63 -122 113 -125 110 -3 -3 55 -63 128 -133 l133 -128 -30 -89
c-16 -49 -35 -131 -41 -182 -12 -95 -6 -177 12 -166 6 4 8 -1 3 -15 -9 -30 16
-51 60 -51 25 0 35 -4 32 -12 -2 -7 -13 -13 -24 -13 -12 0 -25 -3 -29 -7 -14
-15 -35 -8 -44 15 -21 51 4 -72 32 -158 45 -137 131 -276 232 -375 l46 -44
-117 -118 c-80 -80 -125 -118 -140 -118 -12 0 -27 -9 -33 -20 -9 -16 -4 -26
26 -60 20 -22 44 -40 54 -40 22 0 44 25 37 43 -3 9 44 63 119 138 117 116 125
123 146 110 55 -34 161 -81 238 -106 67 -21 112 -28 210 -32 200 -8 324 20
484 112 l80 45 44 -42 c128 -125 207 -211 204 -225 -4 -19 16 -43 37 -43 9 0
35 18 56 40 32 33 38 44 29 58 -6 9 -22 18 -36 20 -16 2 -66 45 -143 122
l-119 119 76 79 c165 173 247 382 248 630 0 119 -23 249 -58 332 l-19 45 133
130 c134 131 153 159 140 208 -14 56 -148 189 -203 203 -47 12 -78 -8 -187
-117 l-108 -109 -68 50 c-294 218 -697 238 -1010 50 -36 -21 -81 -52 -100 -68
l-35 -30 -117 114 c-133 130 -152 138 -224 86z m1877 -4 c35 -21 133 -127 153
-166 18 -35 18 -37 0 -70 -37 -68 -316 -313 -431 -379 -29 -16 -51 -32 -48
-34 2 -3 -4 -5 -13 -6 -9 -1 -28 -4 -42 -9 l-25 -7 23 25 c12 13 21 26 20 29
-2 2 -1 3 1 2 4 -3 140 154 204 236 27 33 45 61 40 61 -17 0 -622 -616 -633
-644 -6 -17 -15 -26 -24 -23 -17 7 -36 -12 -36 -36 0 -12 -5 -17 -14 -14 -8 3
-20 -1 -26 -9 -14 -16 -35 -19 -25 -4 3 6 -1 10 -9 10 -21 0 -28 16 -17 37 5
10 12 26 15 37 4 10 12 16 20 13 13 -5 615 588 605 597 -2 3 -40 -30 -84 -72
-188 -183 -205 -197 -196 -166 37 125 99 226 236 384 46 52 112 123 148 158
55 53 71 62 101 62 20 0 46 -6 57 -12z m-823 -393 l34 -7 -22 -23 c-12 -12
-35 -26 -52 -29 -17 -3 -38 -14 -47 -24 -19 -21 -92 -24 -99 -4 -3 10 -8 7
-19 -7 -18 -27 -29 -27 -36 0 -4 13 0 22 11 26 9 2 26 9 37 13 11 5 37 16 58
24 20 8 38 20 38 25 1 6 3 16 4 21 1 6 3 12 4 15 0 3 13 -1 29 -9 15 -7 42
-17 60 -21z m83 -35 c5 0 9 -5 9 -11 0 -8 -4 -8 -15 1 -8 6 -19 9 -25 5 -13
-8 -9 17 5 27 6 4 11 1 13 -7 2 -8 8 -15 13 -15z m66 -52 c-3 -7 -5 -2 -5 12
0 14 2 19 5 13 2 -7 2 -19 0 -25z m53 18 c0 -2 -6 -9 -13 -15 -10 -8 -14 -7
-14 4 0 8 6 15 14 15 7 0 13 -2 13 -4z m-610 -10 c0 -3 -4 -8 -10 -11 -5 -3
-10 -1 -10 4 0 6 5 11 10 11 6 0 10 -2 10 -4z m685 -17 c8 -23 0 -35 -30 -42
-19 -5 -19 -5 2 -12 19 -6 22 -12 17 -34 -12 -47 -31 -76 -94 -136 -44 -43
-67 -59 -83 -57 -12 2 -35 3 -52 3 -23 0 -26 2 -15 9 13 9 13 10 0 11 -8 1
-21 1 -27 0 -7 -1 -13 3 -13 10 0 8 10 9 30 5 18 -3 29 -2 25 3 -3 5 7 19 22
31 16 12 30 30 33 41 3 11 10 20 15 21 41 1 65 58 25 58 -11 0 -20 5 -20 10 0
6 -11 3 -25 -6 -14 -9 -25 -22 -25 -28 0 -7 -7 -13 -15 -13 -9 0 -14 6 -11 12
5 14 -25 15 -35 2 -3 -4 -12 -1 -19 8 -10 13 -9 15 8 15 11 0 27 7 36 15 8 8
22 15 30 15 9 0 25 9 37 21 23 23 90 31 96 12 7 -19 33 -3 33 19 0 10 4 17 9
13 5 -3 12 -1 16 5 10 16 23 12 30 -11z m-725 -3 c0 -2 -8 -10 -17 -17 -16
-13 -17 -12 -4 4 13 16 21 21 21 13z m80 0 c0 -2 -7 -9 -15 -16 -12 -10 -15
-10 -15 4 0 9 7 16 15 16 8 0 15 -2 15 -4z m-55 -35 c3 -5 1 -12 -5 -16 -5 -3
-10 1 -10 9 0 18 6 21 15 7z m550 -81 c3 -5 1 -10 -4 -10 -6 0 -11 5 -11 10 0
6 2 10 4 10 3 0 8 -4 11 -10z m-218 -72 c-3 -8 -6 -5 -6 6 -1 11 2 17 5 13 3
-3 4 -12 1 -19z m608 6 c24 -9 -1 -24 -40 -24 -29 1 -29 1 -11 15 22 17 27 18
51 9z m-158 -179 c2 -6 -11 -12 -28 -13 -28 -2 -30 -1 -19 13 14 17 41 17 47
0z m-1360 -57 c-3 -7 -5 -2 -5 12 0 14 2 19 5 13 2 -7 2 -19 0 -25z m1413 12
c-14 -4 -34 -8 -45 -8 l-20 -1 20 9 c11 5 31 8 45 8 l25 0 -25 -8z m-1183 -53
c13 -3 25 -2 28 3 9 15 79 -8 97 -32 10 -13 18 -26 18 -29 0 -4 10 -10 23 -15
18 -6 16 -8 -19 -11 -26 -3 -62 4 -98 18 -32 12 -77 22 -100 24 -55 3 -88 14
-81 26 4 5 17 9 30 9 14 0 29 9 35 21 10 18 14 19 28 6 9 -8 27 -17 39 -20z
m-202 -17 c3 -5 1 -10 -4 -10 -6 0 -11 5 -11 10 0 6 2 10 4 10 3 0 8 -4 11
-10z m1220 -30 c3 -5 -1 -10 -9 -10 -9 0 -16 5 -16 10 0 6 4 10 9 10 6 0 13
-4 16 -10z m-395 -109 c0 -5 -167 -176 -370 -381 -204 -205 -370 -374 -368
-376 3 -3 192 180 546 530 116 116 212 208 212 205 0 -4 -741 -747 -753 -755
-1 -1 -10 7 -20 16 -18 17 -5 32 354 394 205 207 379 376 386 376 7 0 13 -4
13 -9z m-763 -773 c13 -12 23 -31 23 -42 -1 -17 -3 -16 -13 8 -11 26 -14 27
-26 12 -13 -15 -15 -15 -32 0 -11 10 -19 23 -19 31 0 20 41 15 67 -9z m1673 9
c0 -8 -12 -24 -27 -38 -14 -13 -23 -19 -20 -13 4 7 1 17 -7 23 -11 10 -16 6
-24 -16 -6 -15 -11 -21 -11 -12 -2 27 38 69 65 69 13 0 24 -6 24 -13z">
<path d="M3345 3516 c-13 -10 -9 -11 24 -8 37 4 44 0 99 -54 32 -33 65 -70 75
-84 12 -19 16 -21 16 -8 1 9 -22 42 -50 73 -71 77 -130 106 -164 81z">
<path d="M3541 3294 c-12 -19 -16 -32 -11 -29 11 7 43 65 36 65 -2 0 -13 -16
-25 -36z">
<path d="M3180 3199 c0 -5 5 -7 10 -4 6 3 10 8 10 11 0 2 -4 4 -10 4 -5 0 -10
-5 -10 -11z">
<path d="M2927 2883 c-266 -261 -269 -265 -261 -272 3 -3 123 113 267 257 144
144 258 262 254 262 -4 0 -121 -111 -260 -247z">
<path d="M2626 2584 c-4 -9 -4 -19 -1 -22 2 -3 7 3 11 12 4 9 4 19 1 22 -2 3
-7 -3 -11 -12z">
<path d="M2576 2534 c-11 -7 -17 -16 -15 -19 3 -3 14 2 25 9 10 8 17 17 14 19
-3 3 -14 -1 -24 -9z">
<path d="M1579 3508 c-45 -27 -96 -75 -121 -116 -29 -47 -16 -50 16 -3 27 39
88 97 122 117 12 6 31 8 48 3 19 -5 26 -5 19 2 -18 18 -51 17 -84 -3z">
<path d="M1441 3324 c0 -12 7 -28 17 -35 15 -12 16 -12 6 1 -7 8 -14 24 -17
35 -4 19 -5 19 -6 -1z">
<path d="M2029 2907 c129 -130 239 -233 244 -230 5 3 -80 92 -189 197 -296
286 -319 300 -55 33z">
<path d="M2287 2662 c-8 -11 80 -98 90 -89 3 4 -14 28 -39 53 -25 25 -48 41
-51 36z">
<path d="M2393 2542 c0 -10 7 -19 14 -19 17 0 13 29 -4 34 -7 3 -11 -4 -10
-15z">
<path d="M2855 2086 c231 -228 422 -412 425 -409 8 7 -814 823 -830 823 -8 0
174 -187 405 -414z">
<path d="M2204 1486 c-11 -28 1 -51 25 -51 32 0 49 28 32 49 -17 20 -50 21
-57 2z">
<path d="M1250 1487 c0 -2 7 -19 16 -36 24 -47 15 -185 -12 -206 -17 -13 -13
-14 49 -15 l68 0 -15 22 c-17 24 -22 78 -7 78 5 0 13 -9 16 -20 13 -40 56 -80
85 -80 46 0 60 10 60 41 0 24 -4 29 -23 29 -12 0 -33 7 -46 17 l-24 16 27 14
c48 25 46 105 -4 130 -22 11 -190 19 -190 10z m150 -47 c6 -12 10 -33 8 -48
-2 -22 -9 -28 -35 -30 l-33 -3 0 50 c0 48 2 51 25 51 14 0 29 -8 35 -20z">
<path d="M1841 1464 c-12 -15 -21 -39 -21 -55 0 -15 -6 -30 -12 -33 -10 -5
-10 -7 0 -12 18 -9 15 -94 -5 -116 -15 -17 -14 -18 46 -18 l62 0 -15 22 c-9
12 -16 42 -16 65 0 36 3 43 20 43 26 0 26 16 -1 23 -16 4 -20 12 -17 39 3 36
33 48 33 13 0 -16 7 -20 30 -20 24 0 31 5 33 24 5 33 -21 51 -74 51 -34 0 -47
-5 -63 -26z">
<path d="M2033 1438 c-33 -23 -42 -38 -23 -38 6 0 10 -26 10 -57 0 -85 15
-108 70 -108 43 0 45 1 45 30 0 25 -4 30 -22 28 -21 -3 -23 1 -23 52 0 48 2
55 20 55 11 0 20 5 20 10 0 6 -9 10 -20 10 -13 0 -20 7 -20 20 0 26 -18 25
-57 -2z">
<path d="M1570 1402 c-32 -26 -20 -62 21 -62 24 0 29 4 29 24 0 30 16 42 35
26 31 -26 17 -47 -42 -66 -63 -21 -84 -44 -67 -71 9 -15 28 -18 114 -20 97 -2
101 -1 86 16 -11 12 -16 36 -16 74 0 75 -20 97 -89 97 -32 0 -56 -6 -71 -18z
m100 -107 c0 -14 -8 -29 -20 -35 -41 -22 -56 17 -17 43 31 22 37 21 37 -8z">
<path d="M2198 1345 c4 -62 1 -80 -13 -95 -18 -20 -17 -20 45 -20 55 0 61 2
50 16 -8 8 -15 51 -18 95 l-5 79 -31 0 -31 0 3 -75z">
<path d="M2358 1345 c4 -62 1 -80 -13 -95 -18 -20 -17 -20 44 -20 l62 0 -15
22 c-22 31 -20 100 2 128 17 21 19 21 35 6 15 -15 15 -19 -3 -58 -26 -59 -9
-98 44 -98 42 0 58 13 54 41 -2 18 -9 23 -26 22 -25 -3 -28 13 -7 41 43 57
-29 111 -98 75 -16 -9 -22 -9 -25 0 -2 6 -16 11 -31 11 l-26 0 3 -75z">
<path d="M2632 1395 c-22 -19 -27 -32 -27 -68 0 -63 32 -97 92 -97 46 0 53
-12 33 -51 -16 -28 -50 -25 -50 5 0 37 -50 45 -64 10 -22 -58 95 -87 153 -38
l31 26 0 117 0 118 -71 1 c-59 0 -74 -3 -97 -23z m105 -26 c24 -46 14 -109
-17 -109 -25 0 -41 23 -47 68 -4 28 -1 43 12 56 21 21 36 17 52 -15z">
<path d="M2943 1298 c-14 -33 -5 -118 13 -118 10 0 14 12 14 39 0 22 6 42 13
45 10 5 10 7 0 12 -18 8 -16 24 2 24 8 0 15 5 15 10 0 20 -47 10 -57 -12z">
<path d="M3022 1268 c-16 -16 -15 -63 2 -78 39 -31 96 25 70 68 -14 21 -55 27
-72 10z m52 -23 c8 -21 -3 -45 -20 -45 -8 0 -17 7 -20 15 -8 21 2 45 20 45 7
0 16 -7 20 -15z">
<path d="M3130 1228 c0 -27 5 -48 10 -48 6 0 10 16 10 36 0 27 5 37 20 41 31
8 24 22 -10 20 -29 -2 -30 -4 -30 -49z">
<path d="M1945 1060 c-8 -14 3 -30 21 -30 8 0 14 9 14 20 0 21 -24 28 -35 10z">
<path d="M2052 1058 c-7 -7 -12 -20 -12 -30 0 -10 -7 -21 -15 -24 -8 -4 -15
-10 -15 -15 0 -5 7 -9 15 -9 12 0 15 -14 15 -65 0 -58 2 -65 20 -65 18 0 20 7
20 65 0 51 3 65 15 65 8 0 15 7 15 15 0 8 -7 15 -15 15 -24 0 -18 28 7 32 12
2 23 9 26 16 5 16 -60 16 -76 0z">
<path d="M1780 955 l0 -105 60 0 c47 0 60 3 60 15 0 11 -11 15 -40 15 l-40 0
0 90 c0 83 -1 90 -20 90 -19 0 -20 -7 -20 -105z">
<path d="M1940 930 c0 -73 2 -80 20 -80 18 0 20 7 20 80 0 73 -2 80 -20 80
-18 0 -20 -7 -20 -80z">
<path d="M2162 994 c-30 -21 -31 -95 -1 -125 24 -24 102 -24 107 1 2 11 -8 15
-40 15 -33 0 -43 4 -46 18 -3 14 4 17 47 17 48 0 51 2 51 25 0 54 -69 83 -118
49z m76 -31 c2 -9 -7 -13 -27 -13 -30 0 -39 9 -24 24 11 10 46 3 51 -11z">
</g>
</svg>
